<svg xmlns="http://www.w3.org/2000/svg" viewBox="0 0 173.72 173.67" width="2500" height="2499"><path d="M28.25 0h117.22c15.62 0 28.25 12.62 28.25 28.24v117.2c0 15.6-12.63 28.23-28.25 28.23h-99.2l-.33-74.82h-.05v-.53c0-28.37 22.52-51.3 50.4-51.3 16.72 0 30.24 13.76 30.24 30.78s-13.52 30.78-30.24 30.78c-5.58 0-10.08-4.6-10.08-10.26 0-5.68 4.5-10.26 10.08-10.26 5.57 0 10.08-4.6 10.08-10.26 0-5.68-4.5-10.26-10.08-10.26-16.73 0-30.24 13.76-30.24 30.78s13.5 30.77 30.24 30.77c27.87 0 50.4-22.94 50.4-51.3 0-28.37-22.53-51.3-50.4-51.3-39.02 0-70.57 32.1-70.57 71.82v.62h-.16l.33 74.64C11.38 172.38 0 160.26 0 145.43V28.23C0 12.64 12.63 0 28.25 0z" fill="#18a497"></path></svg>