<svg version="1.2" xmlns="http://www.w3.org/2000/svg" viewBox="0 0 100 100" width="100" height="100"><style>.a{fill:#fff}</style><path class="a" d="m50 0c-27.6 0-50 22.4-50 50 0 27.6 22.4 50 50 50 27.6 0 50-22.4 50-50 0-27.6-22.4-50-50-50zm-21 32c3.1 0 5.6 2.3 5.9 5 0.3 2.4-0.8 4.6-3.5 5.9-1.4 0.7-2 0.7-2.2 0.2-0.2-0.2 0-0.5 0.2-0.8 2.6-2.1 2.6-3.9 2.3-6.3-0.1-1.6-1.3-2.6-2.4-2.6-5 0-12.1 11.2-11.2 19.3 0.5 3.2 2.3 6.9 6.3 6.9 1.3 0 2.8-0.5 4-1 2.1-1.1 3.4-2 4.6-3.4-0.3-3.7 2.9-8.5 7.7-8.5 2.2 0 3.9 0.9 4 2.5 0.3 2.1-1.6 2.4-2.1 2.4-0.6 0-1.6-0.2-1.6-0.7-0.1-0.6 1.3-0.3 1.2-1.6-0.2-0.9-1.1-1.1-1.9-1.1-3 0-4.7 4.1-4.3 6.7 0.1 1.1 0.7 2.3 1.9 2.3 0.8 0 2.1-1.3 2.5-3.2 0.3-1.3 1.5-2.1 2.5-2.1 0.4 0 0.7 0.1 0.8 0.7v0.5c-0.1 0.6-0.6 2.3-0.4 2.8 0 0.3 0.1 0.7 0.7 0.7 0.4 0 1.8-0.8 3.2-1.9 0.5-2.5 1.1-5.4 1.1-5.7 0.1-1 0.6-2 2.6-2 0.4 0 0.7 0.2 0.8 0.7v0.6l-0.6 2.6c1.9-2.5 4.6-4.2 6.3-4.2 0.7 0 1.3 0.5 1.3 1.2 0 0.4 0 1.1-0.3 1.8-0.5 1.6-1.3 4-1.7 6.2 0 0.5 0.2 1.1 0.9 1.1 0.7 0 2.8-0.8 4.5-3.1l0.1-0.1c0-0.2-0.1-0.5-0.1-0.8 0-1.7 0.2-3.1 0.5-4.1 0.3-1.2 1.7-2.2 2.5-2.2 0.5 0 0.9 0.3 0.9 0.7 0 0.2 0 0.5-0.1 0.6-0.6 1.9-1.1 3.6-1.1 5.3 0 1 0.2 2.4 0.5 3.3 0 0.1 0.1 0.3 0.3 0.3 0.3 0 2.3-1.9 3.7-4.3-1.3-0.9-2-2.3-2-4 0-3 1.8-4.6 3.6-4.6 1.4 0 2.5 1 2.5 3 0 1.3-0.4 2.7-1.1 4h0.4c0.9 0 1.8-0.3 2.4-1q0.3-0.3 0.6-0.5c1.4-1.7 3.5-3.1 5.9-3.1 2 0 3.8 0.9 4 2.5 0.3 2.1-1.6 2.5-2.2 2.5-0.5 0-1.6-0.1-1.6-0.7 0-0.5 1.3-0.3 1.2-1.5-0.1-0.9-1-1.2-1.9-1.2-2.8 0-4.7 3.7-4.3 6.7 0.2 1.2 0.8 2.5 1.9 2.5 0.9 0 2.2-1.3 2.7-3.2 0.3-1.1 1.5-2.1 2.4-2.1 0.5 0 0.8 0.1 0.9 0.7 0 0.3 0 0.8-0.6 2.7-0.7 1.3-0.7 2-0.5 2.6 0.1 1.1 0.7 2 1.3 2.4 0.1 0.1 0.2 0.4 0.2 0.4 0 0.3-0.1 0.6-0.5 0.6-0.2 0-0.3 0-0.5-0.1-2.1-0.9-3-2.3-3.3-3.8-0.8 1-1.8 1.6-3 1.6-1.8 0-3.7-1.7-3.9-3.8-0.1-1 0-1.9 0.3-2.7-0.9 0.5-1.8 0.8-2.6 0.8h-0.7c-1.9 2.7-3.9 4.6-5.3 5.4q-0.8 0.4-1.6 0.5c-0.3 0-0.7-0.2-0.9-0.5-0.4-0.6-0.6-1.6-0.8-2.7-2 2.1-4.7 3.3-6 3.3-1.5 0-2.3-0.9-2.4-2.3v-1.5c0.4-3.2 1.5-5.1 1.5-5.6 0-0.2-0.1-0.3-0.3-0.3-1 0-4.2 3.4-4.8 5.7l-0.5 1.9c-0.2 1.2-1.5 2.1-2.4 2.1-0.4 0-0.7-0.1-0.8-0.7v-0.6l0.2-1c-1.9 1.3-3.7 2.2-4.5 2.2-1.3 0-2-0.8-2.2-1.8-0.8 1.2-1.8 1.8-3.1 1.8-1.5 0-2.9-1.1-3.6-2.5-1 1.1-2.2 2.3-3.5 3.2-2 1.3-4.3 2.3-7 2.3-2.5 0-4.6-1.3-5.8-2.5-1.7-1.6-2.7-4-2.8-6.3-0.9-7 3.4-16 10-20 1.6-0.8 3.1-1.4 4.7-1.4zm40.7 13.7c-0.4 0-0.7 0.7-0.7 1.4 0 1.2 0.6 2.5 1.3 3.2 0.3-0.8 0.4-1.6 0.4-2.4 0-1.5-0.6-2.2-1-2.2z"/></svg>