<svg version="1.2" xmlns="http://www.w3.org/2000/svg" viewBox="0 0 100 100" width="100" height="100"><style>.a{fill:#fff}</style><path class="a" d="m100 50c0 27.6-22.4 50-50 50-27.6 0-50-22.4-50-50 0-27.6 22.4-50 50-50 27.6 0 50 22.4 50 50zm-38.3 0.9c0-3.9-2.4-6.7-6.5-6.7-4.5 0-7.2 3.1-7.2 7.2 0 3.7 2.7 7.3 7.6 7.3 3.8 0 6-2 6-2l-1.7-3.2c0 0-1.9 1.3-3.9 1.3-1.5 0-2.9-0.7-3.2-2.5h8.8c-0.1 0 0.1-1 0.1-1.4zm-35.8-10.2c0 1.3 1 2.3 2.3 2.3 1.2 0 2.2-1 2.2-2.2 0-1.3-1-2.3-2.2-2.3-1.3 0-2.3 1-2.3 2.2zm6.3 14.3h-1.7v-10.5h-10.3v-0.7c0-1.3 1.3-1.4 2-1.4 0.8 0 1.1 0.1 1.1 0.1v-3.6c0 0-0.7-0.1-1.6-0.1-2.2 0-6.1 0.6-6.1 5.1v0.6h-1.9v3.4h1.9v7.1h-1.8v3.4h8.5v-3.4h-2.1v-7.1h5.6v7.1h-1.7v3.4h8.1zm14.3-7.2h1.5v-3.3h-7.4v3.3h1.3l-1.6 5c-0.3 0.9-0.4 1.9-0.4 1.9h-0.1c0 0-0.1-1-0.4-1.9l-1.6-5h1.3v-3.3h-7.4v3.3h1.6l3.8 10.5h5.5zm10.4 1.9h-4c0.3-1.1 0.9-2.1 2.2-2.1 1.1 0 1.8 1 1.8 2.1zm17.2-5.4c0 0-0.3-0.1-0.5-0.1-2.2 0-3.9 1.5-4.5 3.4 0 0 0-0.2 0-0.6v-0.8c0-1.2-0.7-1.7-2-1.7h-4.3v3.3h1.3c0.3 0 0.6 0.3 0.6 0.6v6.6h-1.9v3.4h8.4v-3.4h-1.9v-2c0-2.6 1.3-4.2 3.9-4.2 0.5 0 0.9 0.1 0.9 0.1zm12.3 4.5v-4.5c0 0-0.2-0.1-0.5-0.1-2.1 0-3.9 1.5-4.5 3.4 0 0 0-0.3 0-0.7v-0.7c0-1.3-0.7-1.8-1.9-1.8h-4.4v3.4h1.3c0.4 0 0.6 0.2 0.6 0.6v6.5h-1.9v3.4h8.4v-3.4h-1.8v-2c0-2.5 1.2-4.2 3.8-4.2 0.6 0.1 0.9 0.1 0.9 0.1z"/></svg>