<svg version="1.2" xmlns="http://www.w3.org/2000/svg" viewBox="0 0 100 100" width="100" height="100"><style>.a{fill:#fff}</style><path class="a" d="m16.2 0h67.4c9 0 16.2 7.3 16.2 16.2v67.4c0 9-7.2 16.2-16.2 16.2h-57l-0.2-43q0-0.1 0-0.3c0-16.3 12.9-29.5 28.9-29.5 9.7 0 17.4 7.9 17.4 17.7 0 9.8-7.7 17.7-17.4 17.7-3.2 0-5.7-2.6-5.7-5.9 0-3.3 2.5-5.9 5.7-5.9 3.3 0 5.8-2.6 5.8-5.9 0-3.3-2.5-5.9-5.8-5.9-9.6 0-17.3 7.9-17.3 17.7 0 9.8 7.7 17.7 17.3 17.7 16.1 0 29-13.2 29-29.5 0-16.3-12.9-29.5-29-29.5-22.4 0-40.5 18.5-40.5 41.3q0 0.2 0 0.4h-0.1l0.2 42.9c-8.4-0.7-14.9-7.7-14.9-16.2v-67.4c0-8.9 7.3-16.2 16.2-16.2z"/></svg>