<svg version="1.2" xmlns="http://www.w3.org/2000/svg" viewBox="0 0 100 100" width="100" height="100"><style>.a{fill:#fff}</style><path class="a" d="m50 0.6c-27.3 0-49.4 22.1-49.4 49.4 0 27.2 22.1 49.4 49.4 49.4 27.2 0 49.4-22.2 49.4-49.4 0-27.3-22.2-49.4-49.4-49.4zm0 2.3c26 0 47.1 21.1 47.1 47.1 0 26-21.1 47.1-47.1 47.1-26 0-47.1-21.1-47.1-47.1 0-26 21.1-47.1 47.1-47.1zm0 4.7c-14.8 0-27.8 7.6-35.4 19.1 1 0 1.9 0.1 2.7 0.1 4.4 0 11.3-0.6 11.3-0.6 2.3-0.1 2.6 3.3 0.3 3.5 0 0-2.3 0.3-4.9 0.4l15.5 45.9 9.2-27.8-6.6-18.1c-2.3-0.1-4.4-0.4-4.4-0.4-2.3-0.1-2-3.6 0.3-3.5 0 0 7 0.6 11.1 0.6 4.5 0 11.3-0.6 11.3-0.6 2.3-0.1 2.6 3.3 0.3 3.5 0 0-2.3 0.3-4.9 0.4l15.4 45.6 4.2-14.1c1.8-5.9 3.2-10.1 3.2-13.8 0-5.2-1.9-8.8-3.5-11.6-2.1-3.5-4.1-6.5-4.1-10 0-3.9 2.9-7.5 7.1-7.5q0.2 0 0.5 0c-7.5-6.9-17.6-11.1-28.6-11.1zm37.2 22q0.3 2.1 0.3 4.4c0 4.3-0.8 9.2-3.3 15.2l-12.9 37.4c12.6-7.3 21.1-21 21.1-36.6 0-7.4-1.9-14.3-5.2-20.4zm-75.9 3.1c-2.4 5.3-3.7 11.1-3.7 17.3 0 16.8 9.8 31.3 23.9 38.1zm39.5 21l-12.8 36.9c3.8 1.1 7.8 1.8 12 1.8 4.9 0 9.7-0.9 14.1-2.4q-0.2-0.3-0.3-0.6z"/></svg>